<?xml version="1.0" standalone="no"?><!DOCTYPE svg PUBLIC "-//W3C//DTD SVG 1.1//EN" "http://www.w3.org/Graphics/SVG/1.1/DTD/svg11.dtd"><svg t="1501901404959" class="icon" style="" viewBox="0 0 1024 1024" version="1.1" xmlns="http://www.w3.org/2000/svg" p-id="25762" xmlns:xlink="http://www.w3.org/1999/xlink" width="200" height="200"><defs><style type="text/css"></style></defs><path d="M469.744617 128.315434 141.147694 128.315434c-7.340175 0-13.344936 6.004761-13.344936 13.344936l0 328.596923c0 7.340175 6.004761 13.344936 13.344936 13.344936l341.941859 0L483.089553 141.659347C483.089553 134.320195 477.083769 128.315434 469.744617 128.315434z" p-id="25763"></path><path d="M880.713596 128.315434 552.116673 128.315434c-7.339152 0-13.344936 6.004761-13.344936 13.344936l0 341.941859 341.941859 0c7.340175 0 13.344936-6.004761 13.344936-13.344936L894.058532 141.659347C894.058532 134.320195 888.052748 128.315434 880.713596 128.315434z" p-id="25764"></path><path d="M127.802758 554.041512l0 328.596923c0 7.340175 6.004761 13.344936 13.344936 13.344936l328.596923 0c7.340175 0 13.344936-6.004761 13.344936-13.344936L483.089553 540.696576 141.147694 540.696576C133.807519 540.696576 127.802758 546.701336 127.802758 554.041512z" p-id="25765"></path><path d="M880.713596 540.696576 538.771737 540.696576l0 341.941859c0 7.340175 6.004761 13.344936 13.344936 13.344936l328.596923 0c7.340175 0 13.344936-6.004761 13.344936-13.344936L894.058532 554.041512C894.058532 546.701336 888.052748 540.696576 880.713596 540.696576z" p-id="25766"></path></svg>