<?xml version="1.0" standalone="no"?><!DOCTYPE svg PUBLIC "-//W3C//DTD SVG 1.1//EN" "http://www.w3.org/Graphics/SVG/1.1/DTD/svg11.dtd"><svg t="1501900862837" class="icon" style="" viewBox="0 0 1041 1024" version="1.1" xmlns="http://www.w3.org/2000/svg" p-id="24397" xmlns:xlink="http://www.w3.org/1999/xlink" width="203.3203125" height="200"><defs><style type="text/css"></style></defs><path d="M242.115254 991.038192C96.606011 895.835119 0 728.090034 0 537.047503 0 240.443299 232.850079 0 520.087864 0c287.234893 0 520.087864 240.443299 520.087865 537.050395 0 203.932203-110.082893 381.321401-272.236475 472.254916-0.41365-0.685559-0.824407-1.368226-1.226486-2.050893-62.270192-104.829831-10.98052-101.864859-48.243706-116.119864-37.260294-14.255006-31.726644-63.441718-26.273989-47.963119 5.452655 15.475706 34.442847 35.301966 59.218441 35.301966 24.778486 0 61.952-6.887412 83.933288-23.048678 21.984181-16.164158 46.82052-39.050847 46.82052-39.050847s34.104407-21.36226-46.82052 0c-80.924927 21.365153-106.331119-17.882395-138.887955-69.409266-32.559729-51.529763-43.783232-66.551322-72.770531-66.551322-21.544497-19.895684-61.052384-22.383367-61.052384-22.383367s-39.860791 6.644429-77.55209-6.476655c-37.691299-13.118192-48.17139-34.749469-70.381198-49.603255-22.212701-14.853785-44.422508-37.526418-44.422508-37.526418s-20.500249-15.932746-40.809582-25.325198c-20.306441-9.392452-25.981831-23.719774-25.981831-23.719774s11.628475 7.194034 27.763706-3.439367c0-14.495096-27.885198-21.000678-43.76009-36.774327-15.874893-15.770757-9.059797-27.057898-22.591638-40.832724-13.528949-13.771932-9.690395-2.61496-25.536362-11.350779s-30.005514-22.904045-38.689266-42.336904c-8.677966-19.432859-10.32678-13.711186-20.879186-6.086147s-7.63661 25.519006-7.63661 25.519006-18.186124 0-18.186124 10.772248 8.770531 32.646508 20.399005 72.171752 5.423729 42.730305 0.41365 66.551322c-5.007186 23.821017-2.626531 38.238011 7.726282 99.125514 10.352814 60.890395 96.507661 127.172701 96.507661 127.1727s8.47548 53.733966 43.441899 103.160769c3.199277 22.282124 3.62739 45.024181 2.953401 64.509107-4.567503-0.367367-8.113898-0.182237-9.797424 0.859119-8.13704 5.03322-29.988158 29.938983-29.988158 29.938983l-43.511322 16.699299z m364.228701 9.670147l-41.049673-1.802124-37.008632-18.97582-40.997605 0.885153-45.646101-17.211299 0.049175-0.063639c4.908836-6.806418 3.800949-53.722395-4.908837-116.571118-15.241401-25.322305 49.933017-54.801356 60.95982-13.774825 11.026802 41.029424 42.68113 95.998554 76.742147 110.424226 34.058124 14.425672 32.542373 47.575503 32.542372 47.575502l-0.682666 9.513944z m-204.606192-43.190237l-26.29713-3.109605s-6.69939-1.94965-15.655051-4.211706c0.535141-21.83087 0.983503-44.425401 0.983503-59.062237 0-36.545808 3.829876-47.963119-4.628249-58.336181-8.455232-10.370169 2.09139-16.424497 20.248588-16.424497s17.743548 41.619525 24.711955 85.920542c2.74513 17.436927 2.247593 37.410712 0.636384 55.220791z m241.736316 44.821695c0.083887-11.489627 0.850441-21.281266 2.837695-26.195887 6.971299-17.240226 1.932294-20.517605 1.932294-20.517605s-29.143503-2.41826-24.555752-57.876249c35.961492 0 63.054102 43.219164 85.391187 67.037289 11.564836 12.328497 17.726192 37.448316 20.980429 58.819254l-75.382599-20.775051-11.203254-0.491751z" p-id="24398"></path></svg>